<?xml version="1.0" encoding="utf-8"?>
<svg viewBox="-0.737 -168.203 640.605 800.429" xmlns="http://www.w3.org/2000/svg">
  <path d="M -0.426 512.024 L -0.426 432.024 L 79.574 432.024 L 79.574 152.024 C 79.574 96.691 96.241 47.524 129.574 4.524 C 162.907 -38.476 206.241 -66.643 259.574 -79.976 L 259.574 -107.976 C 259.574 -124.643 265.407 -138.809 277.074 -150.476 C 288.741 -162.143 302.907 -167.976 319.574 -167.976 C 336.241 -167.976 350.407 -162.143 362.074 -150.476 C 373.741 -138.809 379.574 -124.643 379.574 -107.976 L 379.574 -79.976 C 432.907 -66.643 476.241 -38.476 509.574 4.524 C 542.907 47.524 559.574 96.691 559.574 152.024 L 559.574 432.024 L 639.574 432.024 L 639.574 512.024 L -0.426 512.024 Z M 319.574 212.024 Z M 319.574 632.024 C 297.574 632.024 278.741 624.191 263.074 608.524 C 247.407 592.857 239.574 574.024 239.574 552.024 L 399.574 552.024 C 399.574 574.024 391.741 592.857 376.074 608.524 C 360.407 624.191 341.574 632.024 319.574 632.024 Z M 159.574 432.024 L 479.574 432.024 L 479.574 152.024 C 479.574 108.024 463.907 70.357 432.574 39.024 C 401.241 7.691 363.574 -7.976 319.574 -7.976 C 275.574 -7.976 237.907 7.691 206.574 39.024 C 175.241 70.357 159.574 108.024 159.574 152.024 L 159.574 432.024 Z"/>
</svg>