<?xml version="1.0" encoding="utf-8"?>
<svg viewBox="13.843 16.368 799.935 800.799" xmlns="http://www.w3.org/2000/svg">
  <path d="M 254.194 816.75 C 232.194 816.75 213.361 808.916 197.694 793.25 C 182.027 777.583 174.194 758.75 174.194 736.75 C 174.194 714.75 182.027 695.916 197.694 680.25 C 213.361 664.583 232.194 656.75 254.194 656.75 C 276.194 656.75 295.027 664.583 310.694 680.25 C 326.361 695.916 334.194 714.75 334.194 736.75 C 334.194 758.75 326.361 777.583 310.694 793.25 C 295.027 808.916 276.194 816.75 254.194 816.75 Z M 654.194 816.75 C 632.194 816.75 613.361 808.916 597.694 793.25 C 582.027 777.583 574.194 758.75 574.194 736.75 C 574.194 714.75 582.027 695.916 597.694 680.25 C 613.361 664.583 632.194 656.75 654.194 656.75 C 676.194 656.75 695.027 664.583 710.694 680.25 C 726.361 695.916 734.194 714.75 734.194 736.75 C 734.194 758.75 726.361 777.583 710.694 793.25 C 695.027 808.916 676.194 816.75 654.194 816.75 Z M 220.194 176.75 L 316.194 376.75 L 596.194 376.75 L 706.194 176.75 L 220.194 176.75 Z M 182.194 96.75 L 772.194 96.75 C 787.527 96.75 799.194 103.583 807.194 117.25 C 815.194 130.916 815.527 144.75 808.194 158.75 L 666.194 414.75 C 658.861 428.083 649.027 438.416 636.694 445.75 C 624.361 453.083 610.861 456.75 596.194 456.75 L 298.194 456.75 L 254.194 536.75 L 734.194 536.75 L 734.194 616.75 L 254.194 616.75 C 224.194 616.75 201.527 603.583 186.194 577.25 C 170.861 550.916 170.194 524.75 184.194 498.75 L 238.194 400.75 L 94.194 96.75 L 14.194 96.75 L 14.194 16.75 L 144.194 16.75 L 182.194 96.75 Z M 316.194 376.75 L 596.194 376.75 L 316.194 376.75 Z"/>
</svg>